<?xml version="1.0"?><svg width="457.867" height="588.365" xmlns="http://www.w3.org/2000/svg">
 <title>feddi</title>
 <g>
  <title>Layer 1</title>
  <g id="svg_1">
   <path d="m342.859283,51.628181c-0.680328,2.672569 -3.389069,4.837448 -5.486481,6.095798c-2.685242,1.611904 -5.87442,1.518723 -8.621582,2.612484c-2.516693,1.002327 -5.078125,3.554722 -7.837799,4.354149c-2.225128,0.644409 -5.584412,0.134102 -8.621582,0.870819c-4.318604,1.047607 -8.543976,3.805527 -15.675598,2.612488c-1.54953,-2.922501 -3.956512,-4.893185 -5.48645,-7.837456c-7.108887,-0.931786 -9.094208,3.829033 -15.675598,3.483315c-1.582428,-6.402328 3.583466,-5.307697 7.837799,-5.224972c4.298248,-2.022064 9.715729,-3.048771 14.891815,-5.224968c1.645935,-0.691441 2.649963,-2.20755 3.918884,-2.612488c2.544159,-0.812485 6.133881,0.081856 8.621582,-0.870831c1.445313,-0.552975 2.591187,-2.289406 3.918915,-2.612488c3.680634,-0.894341 10.395264,-1.624962 15.675598,-1.741653c4.795197,-0.106239 11.878998,-0.788971 12.540497,6.095802z" fill-rule="evenodd" fill="#ffffff" clip-rule="evenodd" id="svg_2"/>
   <path d="m223.724731,61.207291c-1.314423,3.717575 -6.283585,5.007263 -7.054047,9.579117c-0.865295,5.132668 2.119339,7.867065 3.135132,13.062424c7.132401,7.460396 11.845261,17.608154 19.594482,24.383209c-17.867035,2.43309 -21.638565,-18.336166 -33.70253,-25.254036c-0.608994,-0.775032 -0.84256,-1.966331 -0.783783,-3.483315c-6.641754,-3.360519 -10.531647,-9.779404 -15.675583,-14.804077c5.199585,-5.273746 13.395569,-1.321049 21.162048,-1.741661c4.411118,-0.238609 8.44603,-1.632805 13.32428,-1.741661z" fill-rule="evenodd" fill="#ffffff" clip-rule="evenodd" id="svg_3"/>
   <path d="m248.021881,65.561432c-0.463196,3.997978 0.243774,6.695801 1.567566,8.70829c-5.363403,2.59507 -17.710297,4.277512 -23.513382,0.870827c6.653503,-7.32106 12.316299,-10.45343 21.945816,-9.579117z" fill-rule="evenodd" fill="#ffffff" clip-rule="evenodd" id="svg_4"/>
   <path d="m282.508209,72.528061c-1.649078,2.521927 -1.316742,7.245293 -4.702667,7.837456c-0.779083,10.165192 -8.598083,12.507721 -8.621582,23.512375c4.318604,0.444122 6.550049,-1.430771 6.270233,-6.095795c6.585327,-5.454865 6.178528,-18.680145 13.324249,-23.512375c11.659515,3.941376 25.094269,1.581429 36.837646,-0.870827c-9.778412,11.777946 -19.933838,23.1353 -29.78363,34.833145c-15.033661,5.922493 -29.654297,4.988098 -48.59433,3.483307c-0.467926,-12.252563 -8.964874,-15.583473 -14.108063,-22.641541c14.675507,-1.982002 29.179352,-4.154724 37.62146,-13.062431c3.763702,0.117569 7.130798,-0.204643 7.837769,-3.483315c1.30658,0 2.612335,0 3.918915,0z" fill-rule="evenodd" fill="#ffffff" clip-rule="evenodd" id="svg_5"/>
   <path d="m361.669983,97.782097c-2.261169,5.771851 -9.993958,5.333824 -15.675598,6.966629c-2.442261,0.701881 -4.876678,1.013641 -7.837799,1.741653c-4.081146,1.003189 -12.671356,3.51989 -19.594513,0.870834c9.532379,-8.009888 28.750641,-9.824692 43.10791,-9.579117z" fill-rule="evenodd" fill="#ffffff" clip-rule="evenodd" id="svg_6"/>
   <path d="m132.022461,142.194351c0.783783,0 1.567566,0 2.351334,0c0.863724,3.690567 0.926437,7.233963 0,10.449936c0.592545,1.895813 3.081818,6.128891 0,6.966629c-3.933777,-2.804932 -3.22525,-11.677811 -2.351334,-17.416565z" fill-rule="evenodd" fill="#ffffff" clip-rule="evenodd" id="svg_7"/>
   <path d="m106.941498,149.160965c-3.549736,5.92514 -8.514198,10.279282 -10.972916,17.41658c-5.591484,1.567505 -6.198921,-2.400879 -8.621582,-4.354141c0.953865,-9.579987 13.6362,-28.009323 19.594498,-13.062439z" fill-rule="evenodd" clip-rule="evenodd" id="svg_8"/>
   <path d="m145.34671,150.902634c-1.953171,0.732376 -4.1987,1.139908 -7.054016,0.870834c-4.586685,-10.66069 8.707794,-11.364319 7.054016,-0.870834z" fill-rule="evenodd" clip-rule="evenodd" id="svg_9"/>
   <path d="m110.860397,171.802521c-2.991684,0.421478 -5.002869,-0.247314 -6.270241,-1.741653c-0.275093,-11.069107 12.09687,-7.550079 6.270241,1.741653z" fill-rule="evenodd" clip-rule="evenodd" id="svg_10"/>
   <path d="m121.049545,170.060867c-2.023727,4.070251 -6.268677,6.612213 -9.405365,10.449936c-1.906937,2.332947 -3.604599,8.895508 -7.837807,6.095795c1.424141,-3.958786 5.483345,-9.764587 8.62159,-13.062408c1.634964,-1.71817 4.716003,-3.254303 8.621582,-3.483322z" fill-rule="evenodd" clip-rule="evenodd" id="svg_11"/>
   <path d="m367.940216,178.76915c5.654968,-0.767197 7.605804,2.579391 10.189148,5.22496c-0.798676,9.054016 -9.125549,14.146606 -14.891815,14.804108c2.780853,-4.747772 8.814392,-5.881592 9.405365,-13.062439c-2.481445,-1.307129 -5.832092,-1.648483 -4.702698,-6.966629z" fill-rule="evenodd" fill="#ffffff" clip-rule="evenodd" id="svg_12"/>
   <path d="m76.374077,202.281525c-0.628593,-3.02092 1.167053,-3.347488 0.783783,-6.095795c-3.895386,-2.513229 -8.573769,0.659225 -13.324265,0c0.125412,-8.71701 20.47155,-7.788696 18.810722,1.741653c-0.466347,2.676041 -2.073097,4.366333 -6.270241,4.354141z" fill-rule="evenodd" clip-rule="evenodd" id="svg_13"/>
   <path d="m242.535431,197.927383c2.26358,7.934982 4.628204,15.757645 8.621582,21.770706c17.343506,-2.797104 25.53244,-1.679825 41.540344,2.612488c-0.181854,5.137024 5.393188,3.877808 6.270233,7.837448c1.449982,6.546036 -3.121002,6.401474 -4.702667,9.579117c-17.432861,3.506836 -20.849335,-16.933258 -39.972778,-7.837463c3.80603,8.832809 5.29834,20.238068 10.189148,27.866486c12.538116,-1.774719 27.254364,1.11731 36.053864,6.966675c6.310211,4.193878 12.404114,8.71698 10.972931,20.029022c-0.467163,3.689728 -1.336365,10.407288 -3.135162,14.804077c-0.475739,1.163452 -2.225891,1.266235 -3.135101,2.612518c-1.620056,2.398254 -2.228271,6.625244 -3.135132,7.837433c-2.870178,3.836884 -7.096313,3.689728 -9.405334,9.579102c-4.432281,-0.861206 -4.349213,3.295227 -7.054016,4.354187c1.036163,4.722473 1.982971,12.24472 5.48645,16.545715c-1.699249,6.606995 3.779419,12.044464 -3.135101,13.933289c-5.865051,-5.385223 -5.166687,-18.062744 -8.621582,-26.124878c-8.766602,1.122498 -15.935059,4.196503 -22.729645,5.224976c-0.547852,10.412476 8.103516,17.139648 3.918915,26.124878c-11.777893,0.087067 -5.337555,-20.331238 -12.540497,-26.124878c-17.045624,1.268799 -30.537613,0.057495 -39.972778,-8.708313c-2.67659,-5.959045 -1.584793,-13.410736 3.918915,-14.804077c9.989273,-2.527985 23.899017,20.810211 34.486298,12.19162c-3.392975,-9.873444 -3.724518,-23.148376 -8.621582,-31.349823c-23.373093,5.088257 -46.449142,-10.401184 -38.405197,-40.058105c4.5271,-3.270828 6.710724,-9.536453 10.972916,-13.062439c2.601349,-2.152679 6.204422,-1.734695 7.837799,-5.224976c0.164597,-11.824097 -11.327179,-17.907715 -7.054016,-28.737335c9.627167,2.075195 6.834564,17.950394 12.540497,24.383194c8.395844,-0.831635 13.107147,-5.756165 20.378265,-7.837448c-1.119232,-9.013931 -9.562134,-14.818024 -5.48645,-24.383194c1.306549,0 2.612335,0 3.918884,0zm-14.89183,44.412247c2.290237,9.357056 5.39241,17.811066 10.189133,24.383209c7.261749,-2.944275 13.328979,-2.420044 20.378296,-6.095825c-1.705505,-10.006668 -7.511719,-15.456329 -8.621582,-26.124847c-10.012787,-0.384888 -15.234344,4.553574 -21.945847,7.837463zm-6.270248,3.483322c-5.214478,6.107986 -14.045319,8.197968 -13.324249,20.899887c6.408218,5.677795 14.979614,2.49057 22.72963,1.741638c-1.687469,-9.155029 -4.640762,-16.90538 -9.40538,-22.641525zm51.729492,43.541428c4.763824,6.317841 5.734161,16.851379 9.405365,24.383179c9.728302,-3.978821 22.826813,-14.254578 15.675598,-28.737335c-7.420807,-1.466461 -23.193604,-5.1492 -25.080963,4.354156zm-28.999847,6.095795c4.39621,8.177948 3.809174,21.892639 9.405365,28.737335c7.894989,-1.728607 16.047882,-2.203217 22.729614,-6.966644c-1.654572,-8.321625 -3.610077,-16.307983 -7.054016,-22.641541c-0.184998,-3.857727 -0.565887,-7.498688 -3.918915,-7.837463c-5.627533,2.394775 -18.081024,1.010193 -21.162048,8.708313z" fill-rule="evenodd" fill="black" clip-rule="evenodd" id="svg_14"/>
   <path d="m249.589447,234.502167c1.109863,10.668518 6.916077,16.118179 8.621582,26.124847c-7.049316,3.675781 -13.116547,3.15155 -20.378296,6.095825c-4.796722,-6.572144 -7.898895,-15.026154 -10.189133,-24.383209c6.711502,-3.28389 11.93306,-8.222351 21.945847,-7.837463z" fill-rule="evenodd" fill="#ffffff" clip-rule="evenodd" id="svg_15"/>
   <path d="m230.778732,268.464478c-7.750015,0.748932 -16.321411,3.936157 -22.72963,-1.741638c-0.721069,-12.70192 8.109772,-14.791901 13.324249,-20.899887c4.764618,5.736145 7.717911,13.486496 9.40538,22.641525z" fill-rule="evenodd" fill="#ffffff" clip-rule="evenodd" id="svg_16"/>
   <path d="m298.183807,285.010223c7.151215,14.482758 -5.947296,24.758514 -15.675598,28.737335c-3.671204,-7.531799 -4.641541,-18.065338 -9.405365,-24.383179c1.88736,-9.503357 17.660156,-5.820618 25.080963,-4.354156z" fill-rule="evenodd" fill="#ffffff" clip-rule="evenodd" id="svg_17"/>
   <path d="m265.265045,286.751862c3.353027,0.338776 3.733917,3.979736 3.918915,7.837463c3.443939,6.333557 5.399445,14.319916 7.054016,22.641541c-6.681732,4.763428 -14.834625,5.238037 -22.729614,6.966644c-5.596191,-6.844696 -5.009155,-20.559387 -9.405365,-28.737335c3.081024,-7.69812 15.534515,-6.313538 21.162048,-8.708313z" fill-rule="evenodd" fill="#ffffff" clip-rule="evenodd" id="svg_18"/>
   <path d="m81.860542,322.455841c8.084694,1.741669 16.931213,3.301331 26.648521,5.224976c0,1.451691 0,2.902466 0,4.354126c-7.591698,-0.136658 -21.461464,-0.975281 -26.648521,-4.354126c0,-1.741638 0,-3.483307 0,-5.224976z" fill-rule="evenodd" clip-rule="evenodd" id="svg_19"/>
   <path d="m108.509064,339.001587c-3.273071,4.039764 -9.594254,0.633972 -13.324265,0c-2.542572,-0.431915 -5.685539,-0.447571 -8.621582,-0.870819c-0.094048,-2.507965 -3.342819,-1.510895 -3.135109,-4.354156c0.63015,-0.460663 1.272858,-0.908264 2.351334,-0.870819c5.80468,2.79364 18.81385,-0.15329 22.729622,6.095795z" fill-rule="evenodd" clip-rule="evenodd" id="svg_20"/>
   <path d="m139.076477,339.001587c2.78006,5.145721 -1.387299,17.38089 -7.837799,14.804077c-0.351913,-8.228424 1.22113,-14.317291 7.837799,-14.804077z" fill-rule="evenodd" fill="#ffffff" clip-rule="evenodd" id="svg_21"/>
   <path d="m213.535583,373.834717c-0.370743,2.734406 2.109161,2.30072 2.351334,4.354156c-1.561295,3.781158 -3.015198,7.67984 -8.621582,6.966644c-2.348206,-6.413666 1.568344,-10.197418 6.270248,-11.320801z" fill-rule="evenodd" fill="#ffffff" clip-rule="evenodd" id="svg_22"/>
   <path d="m163.373657,374.705566c2.754196,4.422913 0.577652,11.726593 -3.135132,13.933258c-6.329788,-1.756439 -2.696976,-14.960815 3.135132,-13.933258z" fill-rule="evenodd" fill="#ffffff" clip-rule="evenodd" id="svg_23"/>
   <path d="m151.616959,440.0177c-3.256622,2.649933 -4.692505,0.483337 -7.837799,-0.870819c-3.39064,-7.509155 10.042572,-8.476654 7.837799,0.870819z" fill-rule="evenodd" fill="#ffffff" clip-rule="evenodd" id="svg_24"/>
   <path d="m156.319641,435.663574c3.571686,-1.065918 3.074768,2.388672 6.270233,1.741669c0.520432,4.641479 -0.456161,7.620575 -3.135132,8.708252c-6.737366,-1.837402 -7.814285,-5.491425 -3.135101,-10.449921z" fill-rule="evenodd" fill="#ffffff" clip-rule="evenodd" id="svg_25"/>
   <path d="m315.426971,440.88855c0.57135,2.376465 -1.557373,1.75296 -1.567566,3.483276c-3.125732,0.860413 -2.360748,-2.60199 -5.486481,-1.741638c-1.127838,-7.769531 5.375977,-4.555298 7.054047,-1.741638z" fill-rule="evenodd" fill="#ffffff" clip-rule="evenodd" id="svg_26"/>
   <path d="m172.779007,440.0177c1.01265,4.317596 -1.896744,4.278412 -1.567551,7.837433c-12.953522,3.089722 -5.044403,-14.453979 1.567551,-7.837433z" fill-rule="evenodd" fill="#ffffff" clip-rule="evenodd" id="svg_27"/>
   <path d="m182.968155,444.371826c-0.087784,3.998871 -4.214386,7.062439 -7.837799,4.354156c-0.499268,-6.134979 5.283478,-8.826691 7.837799,-4.354156z" fill-rule="evenodd" fill="#ffffff" clip-rule="evenodd" id="svg_28"/>
   <path d="m306.021606,446.984344c-2.635071,3.670532 -7.383209,-1.778259 -6.270233,-4.354156c2.832581,-2.296356 5.685516,1.407257 6.270233,4.354156z" fill-rule="evenodd" fill="#ffffff" clip-rule="evenodd" id="svg_29"/>
   <path d="m188.45462,444.371826c1.159195,0.453735 1.975906,1.287964 3.135117,1.741669c-0.57843,3.130646 -1.55423,5.820648 -5.486465,5.224976c-0.949936,-4.248749 1.769775,-4.419434 2.351349,-6.966644z" fill-rule="evenodd" fill="#ffffff" clip-rule="evenodd" id="svg_30"/>
   <path d="m281.724426,446.984344c0,1.160797 0,2.322479 0,3.483307c-2.446167,2.083008 -6.765564,0.425812 -6.270233,-3.483307c2.419556,0.141083 4.430725,-2.056915 6.270233,0z" fill-rule="evenodd" fill="#ffffff" clip-rule="evenodd" id="svg_31"/>
   <path d="m153.184525,446.984344c2.41246,0.512909 5.547592,0.222931 5.48645,3.483307c-2.439896,2.616821 -7.440414,-1.217407 -5.48645,-3.483307z" fill-rule="evenodd" fill="#ffffff" clip-rule="evenodd" id="svg_32"/>
   <path d="m295.832458,454.821777c-2.798096,-0.954407 -4.627411,-2.986908 -5.48645,-6.095795c4.163452,-4.738159 11.954224,3.917908 5.48645,6.095795z" fill-rule="evenodd" fill="#ffffff" clip-rule="evenodd" id="svg_33"/>
   <path d="m323.264771,454.821777c-1.112183,-0.07489 -2.219666,-0.143646 -2.351349,0.87085c-3.942413,-0.553833 -5.663574,-3.576508 -7.054016,-6.966644c4.3367,-2.485321 8.182678,2.299896 9.405365,6.095795z" fill-rule="evenodd" fill="#ffffff" clip-rule="evenodd" id="svg_34"/>
   <path d="m260.562378,453.080109c0.798676,3.790741 -1.62085,4.00412 -2.351349,6.095825c-3.02536,-2.444427 -6.963867,-3.873444 -9.405365,-6.966614c2.693085,-5.898987 8.146637,0.067902 11.756714,0.870789z" fill-rule="evenodd" fill="#ffffff" clip-rule="evenodd" id="svg_35"/>
   <path d="m274.67041,458.305084c-3.663361,-0.574707 -5.75293,-2.896332 -6.270233,-6.966614c4.525543,-2.342529 8.153656,2.411346 6.270233,6.966614z" fill-rule="evenodd" fill="#ffffff" clip-rule="evenodd" id="svg_36"/>
   <path d="m168.860107,453.080109c-0.414612,0.700195 -0.817474,1.413391 -0.783768,2.612518c-2.866287,-0.298676 -6.188736,-0.090546 -6.270248,-3.483307c2.548065,-1.431641 4.851608,-0.338745 7.054016,0.870789z" fill-rule="evenodd" fill="#ffffff" clip-rule="evenodd" id="svg_37"/>
   <path d="m306.805389,452.20932c1.306549,0 2.612366,0 3.918884,0c0.165405,2.536713 3.074768,4.31842 1.567566,6.095764c-1.494629,1.634583 -1.41864,-0.517242 -3.918915,0c0.774414,-3.472839 -2.341919,-2.622894 -1.567535,-6.095764z" fill-rule="evenodd" fill="#ffffff" clip-rule="evenodd" id="svg_38"/>
   <path d="m178.265472,454.821777c0.94603,3.66272 -1.265808,3.818604 -1.567551,6.095825c-1.846573,0.019165 -2.307465,-1.500458 -4.702698,-0.87085c-1.351227,-5.345154 3.151596,-7.611053 6.270248,-5.224976z" fill-rule="evenodd" fill="#ffffff" clip-rule="evenodd" id="svg_39"/>
   <path d="m290.346008,460.046753c-3.566193,2.811035 -8.98996,-2.792725 -7.837799,-5.224976c3.617188,-2.455719 7.908325,0.790741 7.837799,5.224976z" fill-rule="evenodd" fill="#ffffff" clip-rule="evenodd" id="svg_40"/>
   <path d="m186.887054,455.692627c1.07692,5.600281 -3.658676,8.846741 -6.270248,5.224976c1.816025,-2.046417 2.568466,-5.273743 6.270248,-5.224976z" fill-rule="evenodd" fill="#ffffff" clip-rule="evenodd" id="svg_41"/>
   <path d="m193.157288,455.692627c2.586487,2.095215 -0.997742,4.627594 -1.567551,6.095795c-2.586472,-2.095184 0.997757,-4.627594 1.567551,-6.095795z" fill-rule="evenodd" fill="#ffffff" clip-rule="evenodd" id="svg_42"/>
   <path d="m306.021606,462.659271c-3.049683,2.307678 -6.998352,-0.572144 -6.270233,-5.224976c2.437561,-1.629364 6.940399,0.636566 6.270233,5.224976z" fill-rule="evenodd" fill="#ffffff" clip-rule="evenodd" id="svg_43"/>
   <path d="m262.913696,457.434296c3.980042,0.851654 6.776581,3.464111 5.486481,7.837433c-4.218292,0.332672 -6.058594,-1.976776 -7.054047,-5.224976c1.672607,0.407562 1.49234,-1.244415 1.567566,-2.612457z" fill-rule="evenodd" fill="#ffffff" clip-rule="evenodd" id="svg_44"/>
   <path d="m138.292694,460.917603c0.508682,3.177673 -0.528259,4.638031 -1.567566,6.095795c-2.987762,-0.163696 -5.157272,-1.236572 -5.48645,-4.354126c1.295593,-4.558807 3.677505,-2.735291 7.054016,-1.741669z" fill-rule="evenodd" fill="#ffffff" clip-rule="evenodd" id="svg_45"/>
   <path d="m151.616959,461.788422c-0.608994,0.775055 -0.84256,1.966339 -0.783783,3.483307c-1.112183,-0.07489 -2.219666,-0.143646 -2.351349,0.87085c-2.213379,-0.7341 -2.159286,-3.986694 -4.702667,-4.354156c0.997757,-4.314056 5.952026,-1.902771 7.837799,0z" fill-rule="evenodd" fill="#ffffff" clip-rule="evenodd" id="svg_46"/>
   <path d="m324.048553,459.175934c2.298828,1.51001 4.5177,3.108002 4.702667,6.966644c-4.06543,0.743652 -5.302246,-1.656342 -6.270233,-4.354156c-0.431854,-1.930603 1.496216,-1.240051 1.567566,-2.612488z" fill-rule="evenodd" fill="#ffffff" clip-rule="evenodd" id="svg_47"/>
   <path d="m277.805542,460.046753c3.383575,0.303925 5.212921,2.336456 5.48645,6.095825c-2.483032,2.064728 -8.507141,-2.046448 -5.48645,-6.095825z" fill-rule="evenodd" fill="#ffffff" clip-rule="evenodd" id="svg_48"/>
   <path d="m332.670135,514.038086c-2.990112,0.128906 -3.773895,-2.192719 -6.270233,-2.612457c1.417847,-5.972107 6.249054,-8.15094 10.189148,-11.32077c0.393433,-3.854218 2.579407,-8.060333 3.135101,-11.32077c0.301758,-1.766907 -1.551086,-2.017731 -1.567566,-2.612457c-0.077576,-2.683044 4.464417,-8.45401 6.270233,-11.320801c3.520752,-5.590668 6.128387,-13.449036 14.108063,-14.804077c3.99646,4.073761 5.436279,12.802948 2.351318,20.899902c-0.250031,0.657471 -2.133423,1.131195 -2.351318,1.741669c-0.862946,2.414795 -0.237457,3.007874 -1.567596,5.224976c-0.42868,0.71405 -1.221893,1.164307 -1.567535,1.741638c-2.25415,3.761139 -1.476624,3.572998 -3.918884,6.095795c-2.483032,2.564606 -8.256348,6.638336 -12.540497,8.708282c-1.01889,4.383728 -4.204987,6.358765 -6.270233,9.579071z" fill-rule="evenodd" fill="#ffffff" clip-rule="evenodd" id="svg_49"/>
   <path d="m162.589874,461.788422c1.663177,3.920471 -0.808868,9.890869 -6.270233,8.708282c-1.162338,-1.031036 -1.219559,-3.289093 -2.351349,-4.354126c1.73999,-2.710876 4.960556,-3.777649 8.621582,-4.354156z" fill-rule="evenodd" fill="#ffffff" clip-rule="evenodd" id="svg_50"/>
   <path d="m298.183807,470.496704c-1.306549,0 -2.612335,0 -3.918884,0c0.593323,-3.271698 -2.051178,-2.946014 -3.135132,-4.354126c0.921722,-6.711487 8.489899,-1.786957 7.054016,4.354126z" fill-rule="evenodd" fill="#ffffff" clip-rule="evenodd" id="svg_51"/>
   <path d="m320.129639,468.755035c-3.095886,-0.043518 -4.663483,-1.785156 -4.702667,-5.224976c1.841888,-1.409821 4.746552,1.817444 4.702667,5.224976z" fill-rule="evenodd" fill="#ffffff" clip-rule="evenodd" id="svg_52"/>
   <path d="m172.779007,464.400909c-0.031342,6.082733 -3.09906,10.366364 -7.837784,8.708252c-1.55423,-3.875153 2.569214,-12.413605 7.837784,-8.708252z" fill-rule="evenodd" fill="#ffffff" clip-rule="evenodd" id="svg_53"/>
   <path d="m140.644043,467.013397c2.537094,-1.454285 5.485672,-1.460388 6.270233,1.741638c1.528381,6.237793 -13.894073,2.628174 -6.270233,-1.741638z" fill-rule="evenodd" fill="#ffffff" clip-rule="evenodd" id="svg_54"/>
   <path d="m279.373108,471.367523c0.583893,2.68042 -2.151489,1.673737 -1.567566,4.354156c-3.091248,-2.080383 -7.363617,-2.849365 -7.054016,-8.708282c4.080322,-2.354706 4.690125,3.941345 8.621582,4.354126z" fill-rule="evenodd" fill="#ffffff" clip-rule="evenodd" id="svg_55"/>
   <path d="m182.184372,467.884216c-1.529144,4.949799 -3.975327,9.117584 -8.621582,6.095795c2.336441,-2.649933 3.531723,-9.161102 8.621582,-6.095795z" fill-rule="evenodd" fill="#ffffff" clip-rule="evenodd" id="svg_56"/>
   <path d="m309.156738,467.013397c1.826202,1.745117 4.447144,2.60553 3.918915,6.966614c-0.91156,-0.141937 -1.394348,0.192444 -1.567566,0.870819c-2.429749,-0.492859 -2.061371,-4.096344 -4.702698,-4.354126c0.230408,-1.775604 2.120911,-1.707703 2.351349,-3.483307z" fill-rule="evenodd" fill="#ffffff" clip-rule="evenodd" id="svg_57"/>
   <path d="m127.319778,467.884216c1.044785,0 2.090332,0 3.135132,0c1.580872,2.063019 2.272171,6.06012 0,7.837463c-1.601273,-0.833374 -3.101425,-1.779114 -4.702698,-2.612518c1.087906,-1.112885 0.479675,-4.11203 1.567566,-5.224945z" fill-rule="evenodd" fill="#ffffff" clip-rule="evenodd" id="svg_58"/>
   <path d="m287.210876,470.496704c2.029999,1.227875 5.303864,1.07373 4.702698,5.224976c-3.125732,0.478088 -2.360748,0.478088 -5.486481,0c-0.337006,-3.369232 -0.858215,-3.098389 0.783783,-5.224976z" fill-rule="evenodd" fill="#ffffff" clip-rule="evenodd" id="svg_59"/>
   <path d="m151.616959,471.367523c1.494675,0.371002 1.41864,2.488007 3.9189,1.741638c0.508667,3.177704 -0.528275,4.638062 -1.567566,6.095825c-2.903885,0.033966 -4.543564,-1.337585 -6.270248,-2.612488c0.811218,-2.291992 3.107712,-2.932922 3.918915,-5.224976z" fill-rule="evenodd" fill="#ffffff" clip-rule="evenodd" id="svg_60"/>
   <path d="m331.10257,472.238373c-3.355377,3.238617 -4.46048,8.977386 -7.054016,13.062408c-1.103546,-0.436279 -4.426758,-0.774139 -5.486481,-1.741669c-0.444366,-0.405792 -3.111603,-5.952057 -3.135101,-5.224976c0.161469,-4.880096 10.0849,-8.391266 15.675598,-6.095764z" fill-rule="evenodd" fill="#ffffff" clip-rule="evenodd" id="svg_61"/>
   <path d="m301.318939,472.238373c3.421204,0.552979 4.916656,3.245575 5.48645,6.966614c-3.067719,4.111206 -9.4375,-3.497223 -5.48645,-6.966614z" fill-rule="evenodd" fill="#ffffff" clip-rule="evenodd" id="svg_62"/>
   <path d="m140.644043,477.463348c-0.266495,2.896332 -2.968964,3.087036 -3.918915,5.224976c-1.820709,-0.589569 -2.098175,-2.893768 -3.918884,-3.483337c0.170853,-5.729156 6.063324,-6.484192 7.837799,-1.741638z" fill-rule="evenodd" fill="#ffffff" clip-rule="evenodd" id="svg_63"/>
   <path d="m122.617096,475.72168c1.773697,0.931793 3.446274,1.976807 4.702682,3.483307c0.089355,3.002625 -3.224472,2.222351 -3.135117,5.224976c-2.298035,-0.639191 -3.370255,-2.641174 -4.702682,-4.354156c0.530624,-2.022919 2.604507,-2.331207 3.135117,-4.354126z" fill-rule="evenodd" fill="#ffffff" clip-rule="evenodd" id="svg_64"/>
   <path d="m166.508774,478.334137c-1.236786,2.110046 -2.804352,3.851715 -4.702682,5.224976c-1.888123,0.356201 -1.703934,-1.590088 -3.9189,-0.870789c-0.55098,-6.224701 5.385361,-6.979706 8.621582,-4.354187z" fill-rule="evenodd" fill="#ffffff" clip-rule="evenodd" id="svg_65"/>
   <path d="m281.724426,476.592499c1.029114,0.888245 2.889801,0.853455 3.918915,1.741638c0,1.45166 0,2.902527 0,4.354187c-3.577179,-0.133301 -7.180206,-3.32135 -3.918915,-6.095825z" fill-rule="evenodd" fill="#ffffff" clip-rule="evenodd" id="svg_66"/>
   <path d="m294.264923,478.334137c2.312958,1.203522 3.173523,4.021545 5.48645,5.224976c-0.277466,1.143402 -1.380249,1.369843 -1.567566,2.612518c-3.04657,-1.525726 -5.04129,-3.875214 -3.918884,-7.837494z" fill-rule="evenodd" fill="#ffffff" clip-rule="evenodd" id="svg_67"/>
   <path d="m175.130356,480.946655c-1.269714,3.498962 -3.223679,5.894592 -7.054016,4.354126c0.571365,-3.768951 4.051361,-8.410431 7.054016,-4.354126z" fill-rule="evenodd" fill="#ffffff" clip-rule="evenodd" id="svg_68"/>
   <path d="m150.049393,483.559113c-0.859009,3.108887 -2.687576,5.141388 -5.486465,6.095825c-0.844131,-1.965454 -2.941513,-2.536682 -3.918884,-4.354156c1.608322,-6.265594 5.862686,-5.253662 9.40535,-1.741669z" fill-rule="evenodd" fill="#ffffff" clip-rule="evenodd" id="svg_69"/>
   <path d="m132.806244,484.429962c0.568237,2.663879 -1.35202,2.561127 -0.783783,5.224976c-4.827301,1.43335 -5.810165,-1.673737 -3.9189,-6.095825c3.03244,-0.374451 2.788696,-0.953522 4.702682,0.87085z" fill-rule="evenodd" fill="#ffffff" clip-rule="evenodd" id="svg_70"/>
   <path d="m117.130646,484.429962c2.84433,-0.837738 0.658371,3.912659 3.135117,3.483337c-0.554138,3.130615 -3.678284,1.224365 -4.702682,0c0.010193,-1.730377 2.138931,-1.106873 1.567566,-3.483337z" fill-rule="evenodd" fill="#ffffff" clip-rule="evenodd" id="svg_71"/>
   <path d="m293.48111,493.138214c-3.639069,-0.310852 -5.168243,-2.966003 -6.270233,-6.095764c3.019135,-3.200317 6.811829,0.453674 6.270233,6.095764z" fill-rule="evenodd" fill="#ffffff" clip-rule="evenodd" id="svg_72"/>
   <path d="m159.454742,488.784088c-0.572144,3.515533 -3.853058,5.365204 -7.054001,3.483337c0.026657,-4.988068 4.828873,-7.793945 7.054001,-3.483337z" fill-rule="evenodd" fill="#ffffff" clip-rule="evenodd" id="svg_73"/>
   <path d="m142.211609,493.138214c-1.121597,4.513519 -6.227142,3.615753 -8.621582,0.87085c0.722641,-5.200562 6.913712,-5.038605 8.621582,-0.87085z" fill-rule="evenodd" fill="#ffffff" clip-rule="evenodd" id="svg_74"/>
   <path d="m168.860107,491.396606c-0.661499,2.624664 -4.418945,4.90451 -7.054016,2.612457c0.51181,-3.539917 4.877472,-5.879852 7.054016,-2.612457z" fill-rule="evenodd" fill="#ffffff" clip-rule="evenodd" id="svg_75"/>
   <path d="m122.617096,491.396606c0.783783,0 1.567566,0 2.351334,0c0.902145,1.029297 0.887253,3.078369 0.783783,5.224945c-2.037048,-0.521606 -2.820816,0.349182 -2.351334,2.612488c-3.639877,-1.37854 -3.102188,-5.068207 -0.783783,-7.837433z" fill-rule="evenodd" fill="#ffffff" clip-rule="evenodd" id="svg_76"/>
   <path d="m151.616959,496.621552c0.375427,2.739624 -1.116104,3.404053 -1.567566,5.224976c-3.571686,1.065063 -3.074753,-2.388672 -6.270233,-1.741669c0.801804,-2.953827 4.931549,-5.633392 7.837799,-3.483307z" fill-rule="evenodd" fill="#ffffff" clip-rule="evenodd" id="svg_77"/>
   <path d="m131.238678,497.492401c1.643585,1.656342 4.134445,2.373016 3.9189,6.095764c-2.611557,0.291779 -3.476852,2.522858 -7.054016,1.741669c0.288437,-1.481262 -0.611343,-1.643219 -1.567566,-1.741669c0.871567,-2.805756 2.946243,-4.273102 4.702682,-6.095764z" fill-rule="evenodd" fill="#ffffff" clip-rule="evenodd" id="svg_78"/>
   <path d="m159.454742,500.104858c-0.079926,2.216248 -2.921127,2.056915 -3.918884,0.87085c0.079956,-2.216248 2.921143,-2.056915 3.918884,-0.87085z" fill-rule="evenodd" fill="#ffffff" clip-rule="evenodd" id="svg_79"/>
   <path d="m143.77916,505.329834c-0.594101,2.242401 -2.501831,3.026154 -5.486465,2.612549c0,-0.870911 0,-1.741699 0,-2.612549c1.046356,-1.242676 4.440903,-1.242676 5.486465,0z" fill-rule="evenodd" fill="#ffffff" clip-rule="evenodd" id="svg_80"/>
   <path d="m142.211609,526.100586c-7.715546,-0.426758 -10.392151,-6.45105 -13.324265,-12.191589c1.561279,-4.190491 5.202728,0.077454 7.837784,0c-0.125397,5.840637 6.887085,7.768677 5.486481,12.191589z" fill-rule="evenodd" fill="#ffffff" clip-rule="evenodd" id="svg_81"/>
   <path d="m334.237701,523.74646c-1.752533,5.89032 -3.299744,12.008728 -11.756714,10.44989c-6.99054,-8.366028 6.033539,-21.257751 11.756714,-10.44989z" fill-rule="evenodd" fill="#ffffff" clip-rule="evenodd" id="svg_82"/>
   <path d="m305.237823,539.292175c-2.504944,3.015625 -9.047943,4.735535 -14.108032,3.483276c-5.554657,-1.374146 -13.981842,-2.006409 -23.513397,-1.741638c-1.595001,0.044434 -1.534668,1.412476 -3.135101,1.741638c-6.142487,1.263611 -19.842163,-0.749695 -28.999878,0c-7.715515,0.632263 -14.557144,0.926575 -23.513397,0c-13.154968,-1.361084 -28.892471,-2.101257 -28.216095,-18.287354c15.382477,-0.56958 38.152084,4.843506 59.567291,3.483276c5.581299,-0.354431 11.219025,-1.541321 16.459351,-1.741638c7.197479,-0.275208 13.955231,-0.568726 20.378296,0c9.414764,0.834229 23.946838,0.702759 25.080963,13.062439z" fill-rule="evenodd" fill="#ffffff" clip-rule="evenodd" id="svg_83"/>
   <path d="m287.210876,42.049065c-3.566162,5.332958 -16.172485,8.152695 -16.459351,20.029057c-1.848969,7.234844 -9.848206,7.635426 -14.891815,11.320774c-3.704956,-2.560242 -2.991699,-10.028465 -3.918915,-15.674915c-6.59079,-5.925987 -16.736847,-6.155018 -26.648529,-5.224972c-12.36882,1.160812 -27.095276,4.599716 -39.972778,3.483315c0.164597,-4.171268 6.09938,-1.931499 7.054016,-5.224972c13.856461,-1.150364 23.888062,-6.550369 37.621429,-7.83746c2.75267,2.457481 6.070404,4.285351 8.621613,6.966629c13.108704,-1.090275 35.563995,-7.838326 48.59433,-7.837456z" fill-rule="evenodd" fill="#ffffff" clip-rule="evenodd" id="svg_84"/>
   <path d="m74.806519,103.877892c0.612915,4.181717 -1.764282,12.540794 -2.351334,18.287407c-8.877098,-2.544571 0.059563,-14.593353 2.351334,-18.287407z" fill-rule="evenodd" fill="#ffffff" clip-rule="evenodd" id="svg_85"/>
   <path d="m356.18399,173.544006c1.596008,6.353989 7.15802,8.302994 9.404999,13.932999c-1.691986,6.827988 -8.93399,7.490997 -8.621979,16.54599c0.277985,1.144012 1.380981,1.37001 1.567993,2.613007c10.807007,0.815994 13.717987,-11.244995 21.945984,-10.449997c-0.547974,11.628998 -17.852997,12.059998 -19.595001,25.253998c9.075012,2.235992 13.810028,-16.214996 23.514008,-10.449997c-2.718994,6.848999 -11.998993,6.406998 -11.756989,16.54599c6.307007,-0.28299 10.996002,-9.567993 18.027008,-3.483994c-1.353027,4.173004 -2.820007,0.901001 -6.27002,0.871002c-4.244995,2.830994 -8.315002,5.856003 -10.190002,11.320999c-0.037994,2.944992 1.825012,3.776993 3.136017,5.224991c3.048981,-0.675995 6.415985,-0.998001 7.837006,-3.483994c3.995972,1.097 3.570984,5.548004 4.702972,9.580002c2.026001,7.212997 3.222015,11.279999 3.919006,21.769989c0.826019,12.447021 2.828003,24.764008 1.567993,40.058014c-0.23999,2.897003 -1.097992,6.149994 -1.567993,11.320984c-0.576996,6.343018 -2.860992,10.934998 -4.703003,17.417023c-0.960999,3.380981 -1.515991,7.185974 -2.350983,9.578979c-0.309998,0.890015 -2.161011,1.268005 -2.351013,1.742004c-0.468994,1.162018 0.570007,3.26001 0,4.354004c-1.257996,2.411987 -5.085999,5.682007 -4.703003,11.320007c-2.230988,1.585999 -2.858978,4.951996 -5.487,6.095978c-0.692993,3.124023 -2.459991,7.322021 -3.917999,10.450012c-0.283997,0.610016 -1.613007,-0.419983 -1.567993,0.871002c0.171997,4.960999 -11.61499,14.050995 -16.458984,19.15799c-1.015015,1.070007 -1.428009,3.544006 -2.35202,4.354004c-1.140991,1.001007 -6.156006,3.178009 -7.837982,4.355011c-2.373016,1.658997 -4.502014,2.919983 -6.27002,5.225006c-5.341003,1.030975 -9.686981,3.169983 -12.539978,6.966003c-9.461029,1.25 -18.399017,8.218994 -29,9.578979c-1.800018,0.231995 -4.359009,-0.380981 -6.27002,0c-3.222992,0.641998 -6.216003,2.897003 -9.406006,3.484009c-2.578003,0.473999 -5.267975,-0.20401 -7.836975,0c-7.314026,0.579987 -13.094025,2.437012 -20.379013,1.740997c-0.326004,-0.031006 -3.791,0.04599 -3.919006,0c-0.840988,-0.298004 -0.541992,-1.631012 -1.567001,-1.740997c-6.924988,-0.744995 -15.319992,2.144012 -21.161987,-3.484009c-14.258011,-1.031982 -25.424011,-2.609985 -37.622009,-8.708008c-0.947998,-0.473999 -1.466003,-2.288971 -2.350998,-2.612976c-2.393005,-0.874023 -4.880997,0.117981 -7.054001,-0.869995c-0.860992,-0.392029 -1.949005,-1.988007 -3.134995,-2.613007c-3.119003,-1.641022 -8.212997,-3.167999 -11.757004,-5.225006c-1.639999,-0.951996 -3.156998,-3.424988 -4.703003,-4.354004c-4.17099,-2.509003 -9.264999,-4.214996 -13.32399,-7.837006c-4.24501,-3.789001 -11.880005,-8.325989 -17.243004,-12.191986c-0.433006,-3.582001 -2.246002,-5.632996 -2.351006,-9.57901c-1.82,-1.17099 -4.450996,-1.44101 -6.270996,-2.613007c-0.625,-1.625977 -1.308998,-3.188995 -1.567001,-5.224976c-7.698997,-1.605011 -7.363998,-12.137024 -12.541,-16.545013c-0.836998,-4.994995 1.091003,-6.915985 1.568001,-10.450012c-6.655098,-0.018982 -13.267899,-1.050995 -21.162102,-1.741974c-4.991096,-6.723999 -12.700401,-9.27301 -15.675598,-16.546021c-0.483604,-1.182007 0.301697,-3.087006 0,-4.354004c-2.553604,-10.730988 -1.311302,-23.105988 3.9189,-31.349976c6.2491,-9.850006 17.7173,-17.574005 24.297203,-20.900024c-2.501106,9.617004 -16.272903,11.867004 -18.027,20.900024c-2.823906,14.540985 14.070396,9.385986 21.945595,14.803986c-7.136795,3.802002 -13.005798,0.292999 -20.377998,2.613007c-1.257202,10.977997 8.774399,10.328979 17.243103,13.061981c3.191895,1.031006 8.020897,6.151001 13.323898,5.225006c-1.119003,-10.147003 -11.698303,-5.388 -16.459,-12.190979c1.728302,-5.141022 8.799995,-1.287018 13.323997,-1.742004c4.249001,-11.406006 -8.471596,-11.481018 -12.540199,-16.546021c1.8536,-3.746002 2.094299,-9.283997 4.702698,-12.190979c-2.160896,-7.018005 0.3405,-8.736023 0,-17.417023c0.345505,-2.517975 1.652504,-3.970001 3.918503,-4.353973c0,-2.032013 0,-4.064026 0,-6.096008c3.366997,-4.387009 6.827003,-8.670013 8.622002,-14.804001c0.131996,-2.180008 -1.204002,-2.725998 -2.350998,-3.483002c2.376999,-5.455002 5.172997,-9.25 8.620995,-13.932999c4.911003,-6.667999 10.904007,-15.546997 15.675995,-23.513c3.077011,-5.137009 6.506012,-11.705002 11.756012,-15.675003c0.799988,-1.143997 0.768997,-3.210007 1.567993,-4.354004c9.697006,-9.25499 17.451996,-20.666992 26.649002,-30.479004c4.048996,0.146011 3.621002,-4.684998 7.837006,-4.353989c4.507996,-8.054001 12.117996,-12.662003 17.243988,-20.029007c3.469009,-1.370995 5.960007,-3.826996 8.621002,-6.096001c10.628006,5.719002 22.093002,9.465004 39.189011,10.450005c15.22998,0.878006 31.937988,3.998001 43.108002,0c3.018005,-1.080002 5.744995,-5.334999 8.621979,-5.224998c3.824005,0.147995 6.374023,6.458 10.189026,9.579002c0.909973,0.744995 2.921997,1.056992 3.918976,1.741989c1.268005,0.871002 2.009003,1.897003 3.13501,2.612c2.73999,1.743011 5.877014,2.536011 7.054016,3.484009c1.988983,1.600998 2.866974,4.436996 4.701996,6.095001c2.595001,2.345993 5.673004,3.106995 7.837982,5.224991c0.839996,0.822006 0.416016,2.366013 1.567993,3.484009c0.519012,0.50499 2.682007,0.302002 3.13501,0.871002c0.705017,0.884995 0.037994,2.68399 0.783997,3.482986c4.71402,5.052002 10.542023,8.814011 14.891998,13.933014zm-117.566986,24.382996c-4.076004,9.565994 4.366989,15.369995 5.485992,24.384003c-7.270996,2.080994 -11.981995,7.00499 -20.377991,7.83699c-5.706009,-6.432999 -2.914001,-22.307999 -12.541,-24.382996c-4.27301,10.828995 7.218994,16.912994 7.054001,28.737c-1.633011,3.490005 -5.236008,3.072006 -7.838013,5.225006c-4.261993,3.526001 -6.444992,9.791992 -10.972,13.062988c-8.043991,29.656998 15.032013,45.146011 38.404999,40.057999c4.897003,8.201019 5.228012,21.476013 8.621002,31.350006c-10.58699,8.618011 -24.496994,-14.720001 -34.485992,-12.191986c-5.503998,1.392975 -6.595001,8.845001 -3.919006,14.803986c9.434998,8.765991 22.927002,9.97699 39.973007,8.708008c7.203003,5.794006 0.761993,26.212006 12.540009,26.125c4.184998,-8.985016 -4.466003,-15.712006 -3.919006,-26.125c6.794983,-1.028015 13.963989,-4.10202 22.72998,-5.225006c3.455017,8.062012 2.757019,20.73999 8.622009,26.125c6.914001,-1.889008 1.436005,-7.325989 3.13501,-13.933014c-3.503998,-4.300995 -4.450012,-11.822998 -5.487,-16.54599c2.704987,-1.05899 2.622009,-5.214996 7.053986,-4.354004c2.309021,-5.888977 6.536011,-5.742004 9.406006,-9.578979c0.907013,-1.212006 1.515015,-5.439026 3.13501,-7.838013c0.908997,-1.346008 2.658997,-1.449005 3.134979,-2.612c1.799011,-4.397003 2.667999,-11.114014 3.13501,-14.803986c1.431,-11.312012 -4.662994,-15.835022 -10.972992,-20.029022c-8.799011,-5.850006 -23.515991,-8.742004 -36.054016,-6.96698c-4.890991,-7.628006 -6.382996,-19.034012 -10.18898,-27.866013c19.123978,-9.095993 22.539993,11.343994 39.973007,7.837006c1.58197,-3.178009 6.152985,-3.033005 4.702972,-9.57901c-0.876984,-3.959991 -6.451996,-2.699997 -6.270996,-7.83699c-16.007996,-4.292999 -24.195984,-5.410004 -41.539993,-2.613007c-3.992996,-6.013 -6.358002,-13.835999 -8.621994,-21.770996c-1.306,0 -2.612,0 -3.917999,0zm-156.756508,129.753998c5.187103,3.378998 19.056503,4.21701 26.648506,4.354004c0,-1.451996 0,-2.902008 0,-4.354004c-9.717201,-1.924011 -18.563805,-3.483002 -26.648506,-5.225006c0,1.742004 0,3.483002 0,5.225006zm3.918907,5.225006c-1.078407,-0.037994 -1.721107,0.410004 -2.351303,0.871002c-0.207703,2.842987 3.0411,1.845978 3.135101,4.354004c2.936096,0.422974 6.078995,0.438995 8.621597,0.871002c3.730003,0.633972 10.051201,4.038971 13.324203,0c-3.916,-6.249023 -16.924904,-3.303009 -22.729599,-6.096008zm45.459595,20.899994c6.449997,2.575989 10.617996,-9.658997 7.837006,-14.803986c-6.615997,0.485992 -8.189011,6.574982 -7.837006,14.803986zm76.026001,31.350006c5.606995,0.712982 7.061005,-3.186005 8.621994,-6.96701c-0.241989,-2.053986 -2.722,-1.619995 -2.350998,-4.354004c-4.701996,1.123016 -8.618988,4.907013 -6.270996,11.321014zm-47.026001,3.483002c3.712006,-2.207001 5.889008,-9.511017 3.134995,-13.933014c-5.831985,-1.027985 -9.464996,12.175995 -3.134995,13.933014z" fill-rule="evenodd" fill="#ffffff" clip-rule="evenodd" id="svg_86"/>
   <path d="m297.18399,43.1782c-3.584991,4.434299 -8.483978,7.409901 -14.108002,9.579201c1.779999,3.306499 5.376007,0.848099 7.838013,0c8.040009,-2.769302 17.817993,-10.190502 28.216003,-12.191601c4.755005,-0.915298 8.684998,-0.903099 14.890991,-0.870899c1.348999,0.007 3.73999,-0.311699 4.703003,0c7.089996,2.2929 12.325989,12.708 7.054016,21.770699c-3.19101,1.3881 -5.30603,3.974503 -6.27002,7.837502c-3.880981,0.912598 -5.743988,4.068497 -7.053986,7.837402c-2.214996,-0.719299 -2.031006,1.226997 -3.919006,0.870895c-5.627991,10.582298 -15.559998,16.384605 -21.162018,26.995605c4.33902,0.848 7.461029,-3.599106 11.757019,-5.224907c1.834991,-0.694099 4.178009,-0.259499 6.269989,-0.870796c1.705017,-0.498199 2.976013,-1.995102 4.703003,-2.612503c9.132996,-3.268196 21.794006,-4.817497 29.78299,-4.354195c6.417023,0.371895 14.920013,2.471397 14.108002,10.450394c-0.492981,4.841003 -6.325989,6.094002 -10.188995,8.708c-1.453979,0.984001 -1.880981,2.915001 -3.134979,3.483002c-2.231018,1.011002 -5.14801,0.887001 -7.838013,1.742004c-1.009003,0.32 -2.230011,1.542999 -3.13501,1.740997c-14.686005,3.219002 -27.980988,-1.07 -41.539978,1.741997c-3.124023,0.278 -5.792023,0.048004 -7.054016,-1.741997c-1.434998,2.029999 1.356018,4.942001 4.701996,4.355003c0.554993,4.026993 5.378998,3.312996 6.270996,6.965996c1.306,0 2.612,0 3.919006,0c16.109009,12.580994 31.957001,25.451004 43.890991,42.671005c7.300018,1.757996 13.323029,4.936996 19.595001,7.83699c2.781006,7.689011 1.213013,14.87001 6.27002,20.029007c0.837982,3.253998 -1.946014,2.481995 -1.567993,5.224991c1.369995,2.541 3.713989,4.002014 5.487,6.096008c0.602997,3.281998 -0.956024,4.162994 -0.784027,6.966995c2.422028,2.533997 6.738007,2.962997 7.838013,6.966003c-0.078003,5.138 -3.718994,6.317993 -5.487,9.580002c-1.029999,5.050003 2.570007,8.763992 3.919006,13.061996c0.406006,1.290009 -0.287018,3.020004 0,4.354004c0.505005,2.343002 2.653992,4.817993 3.134979,6.96701c2.049011,9.149994 0.577026,20.212982 1.568024,30.478973c0.824005,8.542999 1.781006,21.480011 0,33.091003c-0.89801,5.860016 -1.557007,12.472015 -3.13501,18.288025c-0.747009,2.752991 -3.059998,5.028992 -3.919006,7.836975c-1.397003,4.569 -0.992981,10.002014 -2.350983,13.933014c-3.661011,10.593994 -11.83902,18.03299 -14.108002,26.996002c-2.460999,-0.412018 -2.071014,2.342987 -3.919006,2.612c-4.746002,12.143982 -16.946014,16.005981 -22.730011,26.996002c-3.118988,-1.559021 -4.020996,2.53299 -5.485992,3.483002c-1.899994,1.233002 -5.036987,0.350983 -5.487,3.483978c-8.445007,2.22702 -14.457001,7.15802 -21.945984,10.450012c7.367981,10.681 15.292999,20.744995 18.810974,35.70401c3.663025,-0.575012 5.753021,-2.897003 6.27002,-6.96701c5.835999,-2.097992 8.848999,-11.713013 15.675995,-11.320984c3.792999,0.217987 5.910004,4.227997 9.404999,6.96698c0.32901,3.988007 -1.009003,9.830017 1.567993,11.321014c-2.899994,2.134003 -1.029999,6.054993 -1.567993,8.707977c-1.306,6.455017 -5.265991,11.33902 -6.269989,17.417023c-3.625,1.196991 -5.508026,4.329987 -7.054016,7.837006c-8.570984,1.21698 -12.229004,7.892975 -18.027008,12.191986c5.176025,10.328003 -2.629974,18.36499 -6.269989,24.382996c-13.066986,1.384033 -20.921997,-9.583984 -27.432007,-18.288025c-0.419983,-6.850952 0.304993,-12.432007 3.13501,-15.674957c-2.522003,-2.713013 -3.970001,-6.620026 -8.622009,-6.966003c-2.882996,2.312988 -2.661987,8.072998 -4.703003,11.321014c-6.709991,1.067993 -6.000977,-6.104034 -11.755981,-6.096039c-14.949005,-18.804993 -32.576004,-34.634979 -47.811005,-53.120972c-8.48201,-1.665009 -20.160004,-4.226013 -28.216003,-3.483002c-2.143005,2.552979 -3.449005,6.037994 -3.134995,11.320984c-1.137009,4.542999 -5.614014,5.373993 -5.487,11.321014c-15.742004,17.052002 -30.155014,35.580994 -54.080002,43.540985c2.455002,7.096008 10.477997,8.268982 12.539993,16.546021c0.423996,1.701965 -1.766006,1.76001 -2.350998,6.096008c-17.787003,5.810974 -30.600998,-5.802002 -36.837997,-18.288025c-1.189003,-7.289978 2.716995,-15.127991 -1.567001,-18.286987c-3.031006,0.696991 -3.727005,3.985992 -5.487,6.095001c-1.045006,0 -2.090004,0 -3.135002,0c-9.843597,-9.775024 -2.326004,-25.554016 4.703003,-33.091003c0.842995,-17.351013 11.042,-24.307007 19.594002,-33.091003c8.580002,0.335999 3.968002,15.329987 10.972992,17.415985c3.457001,-4.208984 -2.169998,-8.544006 -3.918991,-12.191986c0.877991,-8.580994 -7.570007,-15.559998 -1.567001,-21.77002c5.019989,-0.491974 5.047989,4.636017 9.404999,2.612c-4.839996,-7.664978 -14.190002,-9.002991 -20.378006,-14.803986c-4.212997,-3.947998 -6.530998,-9.779999 -11.756996,-12.19101c-9.854004,-15.177002 -22.958504,-26.742004 -27.432304,-47.895996c-7.278999,-6.536987 -16.453094,-12.643982 -21.162098,-24.382996c-0.845699,-2.108002 -2.6703,-4.645996 -3.135098,-6.096008c-0.5714,-1.779999 1.0401,-2.432983 0.783798,-3.483002c-0.163101,-0.666992 -1.457901,-0.59198 -1.5676,-1.742004c-1.374798,-14.379974 4.369602,-19.337982 7.837803,-31.349976c4.644699,-1.225006 6.191101,-5.893005 10.189095,-7.837006c0,-2.322998 0,-4.644012 0,-6.96701c2.730705,-6.255005 4.796806,-13.248993 5.486504,-21.770996c3.093597,-2.947998 5.017799,-7.195999 5.486496,-13.061996c3.348305,-1.796005 4.085007,-6.490997 5.486404,-10.449997c-1.377899,-3.694 -4.7826,-5.136002 -7.054001,-7.837006c-6.535202,-0.897995 -11.476097,2.208008 -16.459396,0.869995c-4.788902,-1.284988 -5.534203,-7.079987 -10.189102,-7.83699c-0.594902,-6.393005 -5.992802,-9.378006 -5.4865,-15.675003c0.342499,-4.259003 4.352398,-7.576004 6.270298,-11.320999c-5.187901,-4.975998 -8.337898,-12.216995 -14.108101,-16.544998c-5.575001,-10.544006 -5.804699,-23.165009 -0.783798,-33.962997c2.8405,-0.327011 3.931499,-2.598007 4.702698,-5.225006c5.544502,0.065002 6.503002,-4.965996 10.189201,-6.965996c-0.114498,-6.337006 3.938499,-15.278 6.270203,-21.771103c12.697197,-7.238304 21.463799,-22.9646 41.540497,-19.158203c8.029999,7.043304 21.479004,8.065605 31.350998,13.062401c1.104004,2.257202 2.652008,4.020599 3.919006,6.095802c2.231003,-1.627602 6.826996,0.138496 8.621994,1.742096c0.07901,2.700005 -0.959,4.160004 -1.567993,6.095001c-9.553009,-4.209 -14.619003,0.153999 -22.730011,3.484001c-1.533997,-1.627998 -0.241989,-3.190002 0,-5.224998c-3.35099,1.298996 -12.255997,7.891998 -18.80999,3.483002c-5.064003,0.704994 -8.361,6.764999 -13.3246,2.612999c-3.882904,3.522995 -4.911201,10.218002 -13.324303,8.708c-3.409401,5.209999 -3.390602,14.230003 -9.405403,16.545998c-13.721596,-2.576004 -27.443996,8.473999 -21.945797,21.770004c3.433701,-4.313004 3.422001,-12.453003 12.540501,-10.449997c0.440498,5.606995 2.486099,9.429993 7.054001,10.449997c-0.469505,8.636993 7.120598,10.013 4.702698,18.287994c-0.878601,2.507004 -5.736496,0.593002 -6.270302,3.483002c3.044205,3.294006 10.374199,1.826004 10.973,7.837006c-5.504494,2.306 -8.079994,-4.427002 -14.891899,-1.741013c-3.498798,1.379013 -5.620399,6.862015 -5.486397,10.450012c0.452198,12.082993 28.559395,23.755997 28.999802,5.224991c5.324997,-0.981995 2.372498,7.233002 3.135201,11.320007c0.852699,2.826996 3.834999,3.287003 5.486397,5.224991c2.158096,-2.825989 4.8041,-5.110992 5.486099,-9.578995c4.058998,-1.315002 4.682999,-6.309998 7.054001,-9.578995c1.215996,-1.675003 3.519997,-2.632004 4.703003,-4.354004c2.282997,-3.324005 3.603996,-7.751007 6.269997,-11.320999c2.972,-3.977997 8.368004,-9.944 10.973,-15.675003c3.695007,-0.811996 3.839996,-2.546005 7.837997,-6.966003c1.673004,-1.849991 4.333008,-3.584991 5.486008,-5.224991c0.757996,-1.077011 0.76799,-3.387009 1.567993,-4.354004c2.498001,-3.020004 5.960007,-3.813004 6.270004,-6.966995c0.395004,-4.020004 -2.723999,-6.811005 -5.486008,-10.450012c-4.242996,1.382004 -9.075989,2.108002 -14.891998,1.742004c-0.735992,-3.246994 -2.959991,-4.838989 -2.350998,-9.578995c3.221008,-3.538002 11.371002,-0.605003 13.324005,-3.484001c-1.311005,-4.348999 -7.429001,-3.357002 -6.270004,-10.450005c6.533005,-1.452995 5.481995,5.521004 10.188995,6.096001c1.080002,4.606003 3.927002,7.249001 6.270004,10.450005c-0.421997,5.403992 2.830002,6.724991 3.134995,11.320999c17.971008,-8.770004 31.235001,-22.771004 50.945999,-29.608002c11.132004,7.343002 26.644012,8.57 43.108002,10.450005c8.32402,0.949997 17.406998,2.522995 25.865005,1.740997c1.337006,-0.123001 3.070007,-1.563004 4.701996,-1.740997c4.77002,-0.521004 13.614014,-0.25 16.459991,-6.096001c-5.102997,-0.840004 -9.583984,3.188995 -14.891998,4.353996c-1.431,0.314003 -2.878998,-0.880997 -3.134979,-0.871002c-1.446014,0.058006 -2.809021,1.647003 -3.919006,1.742004c-24.951004,2.137001 -46.84201,-4.596001 -64.270004,-10.450005c-6.212006,-5.604996 -10.095001,-13.715698 -15.675995,-20.029198c-1.328003,-1.502197 -3.104004,-3.689697 -5.486008,-3.483299c-4.052002,-12.334396 -13.979996,-18.140198 -20.378998,-27.866501c-1.065002,-5.248501 1.548996,-6.4076 1.568008,-10.450001c19.28299,-2.943398 38.718994,-12.513798 61.918991,-13.933197c1.447006,3.036598 3.220001,5.710899 5.486008,7.837399c11.858002,-1.200798 22.550003,-7.874901 34.486008,-9.579102c9.888977,-1.411598 19.770996,-1.090298 23.513977,9.579102zm-59.566986,8.708302c-2.552002,-2.681301 -5.869003,-4.509102 -8.622009,-6.966602c-13.733002,1.287102 -23.764999,6.687099 -37.621002,7.837502c-0.954987,3.2934 -6.889999,1.053699 -7.054993,5.224899c12.878006,1.116402 27.604004,-2.322498 39.973007,-3.483299c9.911987,-0.93 20.057999,-0.701 26.648987,5.224998c0.927002,5.6464 0.214005,13.1147 3.919006,15.674904c5.043015,-3.685402 13.043015,-4.085899 14.892014,-11.320808c0.28598,-11.876293 12.892975,-14.696095 16.458984,-20.028996c-13.029999,-0.0009 -35.485992,6.747101 -48.593994,7.837402zm91.701996,-4.354103c-5.281006,0.116703 -11.994995,0.847301 -15.675995,1.7416c-1.328003,0.323101 -2.472992,2.059502 -3.919006,2.612503c-2.487,0.952698 -6.076996,0.058399 -8.621002,0.870899c-1.268982,0.4049 -2.27301,1.920998 -3.919006,2.6124c-5.175995,2.176201 -10.593994,3.2029 -14.891998,5.224998c-4.253998,-0.082699 -9.419983,-1.177399 -7.837982,5.225002c6.582001,0.345695 8.566986,-4.4151 15.675995,-3.483303c1.529999,2.944202 3.936981,4.914906 5.485992,7.837399c7.131989,1.1931 11.356995,-1.564896 15.675995,-2.612495c3.037018,-0.736702 6.395996,-0.226402 8.621002,-0.870804c2.76001,-0.799393 5.321991,-3.351799 7.838013,-4.354099c2.746979,-1.0938 5.936981,-1.000599 8.621979,-2.612499c2.097015,-1.2584 4.806,-3.423199 5.486023,-6.095798c-0.661011,-6.8848 -7.744995,-6.202099 -12.540009,-6.095802zm-119.919006,17.416607c-7.765991,0.420593 -15.96199,-3.532104 -21.161987,1.741592c5.143997,5.024704 9.033997,11.443604 15.675995,14.8041c-0.059006,1.517006 0.175003,2.708305 0.783997,3.483299c12.063995,6.9179 15.835007,27.687004 33.701996,25.254005c-7.748993,-6.775002 -12.46199,-16.922806 -19.593994,-24.383202c-1.016006,-5.195297 -4.001007,-7.929703 -3.134995,-13.062401c0.769989,-4.5718 5.738998,-5.861504 7.054001,-9.579102c-4.879013,0.108803 -8.91301,1.502998 -13.325012,1.741707zm15.67601,12.191498c5.802994,3.4067 18.149994,1.724297 23.513,-0.870804c-1.322998,-2.012497 -2.029999,-4.710297 -1.567001,-8.708298c-9.630005,-0.874298 -15.292007,2.258102 -21.945999,9.579102zm52.512985,-2.612404c-0.707001,3.278603 -4.073975,3.6008 -7.836975,3.483299c-8.443024,8.9077 -22.946014,11.080399 -37.622009,13.062401c5.14299,7.058098 13.639999,10.389 14.108002,22.641197c18.940002,1.505005 33.561005,2.440002 48.593994,-3.482994c9.850006,-11.6978 20.006012,-23.055199 29.783997,-34.833099c-11.743011,2.452293 -25.178009,4.812195 -36.837982,0.870796c-7.14502,4.832298 -6.738007,18.057503 -13.324005,23.512398c0.279999,4.664902 -1.951019,6.539902 -6.27002,6.095901c0.02301,-11.004799 7.84201,-13.347298 8.622009,-23.512497c3.38501,-0.592102 3.053009,-5.315498 4.701996,-7.837402c-1.306,0 -2.612,0 -3.919006,0zm39.973022,34.832901c6.922974,2.649002 15.513,0.133003 19.595001,-0.871002c2.960999,-0.727997 5.394989,-1.039001 7.836975,-1.740997c5.682007,-1.633003 13.415009,-1.195 15.676025,-6.966904c-14.357025,-0.245598 -33.576019,1.569206 -43.108002,9.578903zm-246.106812,14.804001c0.586998,-5.746002 2.964203,-14.105003 2.351303,-18.287003c-2.291801,3.694 -11.228405,15.743004 -2.351303,18.287003zm268.836792,37.445992c-0.746002,-0.798996 -0.078979,-2.597992 -0.783997,-3.482986c-0.453003,-0.569 -2.615997,-0.366013 -3.13501,-0.871002c-1.151978,-1.117996 -0.727997,-2.662003 -1.567993,-3.484009c-2.164978,-2.117996 -5.242981,-2.878998 -7.837982,-5.224991c-1.835022,-1.658005 -2.713013,-4.494003 -4.701996,-6.095001c-1.177002,-0.947998 -4.314026,-1.740997 -7.054016,-3.484009c-1.126007,-0.714996 -1.867004,-1.740997 -3.13501,-2.612c-0.996979,-0.684998 -3.009003,-0.996994 -3.918976,-1.741989c-3.815002,-3.121002 -6.365021,-9.431007 -10.189026,-9.579002c-2.876984,-0.110001 -5.603973,4.144997 -8.621979,5.224998c-11.170013,3.998001 -27.878021,0.878006 -43.108002,0c-17.096008,-0.985001 -28.561005,-4.731003 -39.189011,-10.450005c-2.660995,2.269005 -5.151993,4.725006 -8.621002,6.096001c-5.125992,7.367004 -12.735992,11.975006 -17.243988,20.029007c-4.216003,-0.331009 -3.78801,4.5 -7.837006,4.353989c-9.197006,9.812012 -16.951996,21.224014 -26.649002,30.479004c-0.798996,1.143997 -0.768005,3.210007 -1.567993,4.354004c-5.25,3.970001 -8.679001,10.537994 -11.756012,15.675003c-4.771988,7.966003 -10.764992,16.845001 -15.675995,23.513c-3.447998,4.682999 -6.243996,8.477997 -8.620995,13.932999c1.146996,0.757004 2.482994,1.302994 2.350998,3.483002c-1.794998,6.133987 -5.255005,10.416992 -8.622002,14.804001c0,2.031982 0,4.063995 0,6.096008c-2.265999,0.383972 -3.572998,1.835999 -3.918503,4.353973c0.3405,8.681 -2.160896,10.399017 0,17.417023c-2.608398,2.906982 -2.849098,8.444977 -4.702698,12.190979c4.068604,5.065002 16.7892,5.140015 12.540199,16.546021c-4.524002,0.454987 -11.595695,-3.399017 -13.323997,1.742004c4.760696,6.802979 15.339996,2.043976 16.459,12.190979c-5.303001,0.925995 -10.132004,-4.194 -13.323898,-5.225006c-8.468704,-2.733002 -18.500305,-2.083984 -17.243103,-13.061981c7.3722,-2.320007 13.241203,1.188995 20.377998,-2.613007c-7.875198,-5.417999 -24.769501,-0.263 -21.945595,-14.803986c1.754097,-9.03302 15.525894,-11.28302 18.027,-20.900024c-6.579903,3.326019 -18.048103,11.050018 -24.297203,20.900024c-5.230202,8.243988 -6.472504,20.618988 -3.9189,31.349976c0.301697,1.266998 -0.483604,3.171997 0,4.354004c2.975197,7.27301 10.684502,9.822021 15.675598,16.546021c7.894203,0.690979 14.507004,1.722992 21.162102,1.741974c-0.476997,3.534027 -2.404999,5.455017 -1.568001,10.450012c5.177002,4.40799 4.842003,14.940002 12.541,16.545013c0.258003,2.03598 0.942001,3.598999 1.567001,5.224976c1.82,1.171997 4.450996,1.442017 6.270996,2.613007c0.105003,3.946014 1.917999,5.997009 2.351006,9.57901c5.362999,3.865997 12.997993,8.402985 17.243004,12.191986c4.05899,3.622009 9.153,5.328003 13.32399,7.837006c1.546005,0.929016 3.063004,3.402008 4.703003,4.354004c3.544006,2.057007 8.638,3.583984 11.757004,5.225006c1.185989,0.625 2.274002,2.220978 3.134995,2.613007c2.173004,0.987976 4.660995,-0.004028 7.054001,0.869995c0.884995,0.324005 1.403,2.138977 2.350998,2.612976c12.197998,6.098022 23.363998,7.676025 37.622009,8.708008c5.841995,5.628021 14.237,2.739014 21.161987,3.484009c1.025009,0.109985 0.726013,1.442993 1.567001,1.740997c0.128006,0.04599 3.593002,-0.031006 3.919006,0c7.284988,0.696014 13.064987,-1.161011 20.379013,-1.740997c2.569,-0.20401 5.258972,0.473999 7.836975,0c3.190002,-0.587006 6.183014,-2.84201 9.406006,-3.484009c1.911011,-0.380981 4.470001,0.231995 6.27002,0c10.600983,-1.359985 19.538971,-8.328979 29,-9.578979c2.852997,-3.796021 7.198975,-5.935028 12.539978,-6.966003c1.768005,-2.305023 3.897003,-3.56601 6.27002,-5.225006c1.681976,-1.177002 6.696991,-3.354004 7.837982,-4.355011c0.924011,-0.809998 1.337006,-3.283997 2.35202,-4.354004c4.843994,-5.106995 16.630981,-14.196991 16.458984,-19.15799c-0.045013,-1.290985 1.283997,-0.260986 1.567993,-0.871002c1.458008,-3.127991 3.225006,-7.325989 3.917999,-10.450012c2.628021,-1.143982 3.256012,-4.509979 5.487,-6.095978c-0.382996,-5.638 3.445007,-8.90802 4.703003,-11.320007c0.570007,-1.093994 -0.468994,-3.191986 0,-4.354004c0.190002,-0.473999 2.041016,-0.85199 2.351013,-1.742004c0.834991,-2.393005 1.389984,-6.197998 2.350983,-9.578979c1.84201,-6.482025 4.126007,-11.074005 4.703003,-17.417023c0.470001,-5.17099 1.328003,-8.423981 1.567993,-11.320984c1.26001,-15.294006 -0.741974,-27.610992 -1.567993,-40.058014c-0.696991,-10.48999 -1.893005,-14.556976 -3.919006,-21.769989c-1.131989,-4.031998 -0.707001,-8.483002 -4.702972,-9.580002c-1.421021,2.485992 -4.788025,2.807999 -7.837006,3.483994c-1.311005,-1.447998 -3.174011,-2.279999 -3.136017,-5.224991c1.875,-5.464996 5.945007,-8.490005 10.190002,-11.320999c3.450012,0.029999 4.916992,3.302002 6.27002,-0.871002c-7.031006,-6.084 -11.720001,3.201004 -18.027008,3.483994c-0.242004,-10.138992 9.037994,-9.696991 11.756989,-16.54599c-9.703979,-5.764999 -14.438995,12.685989 -23.514008,10.449997c1.742004,-13.194 19.047028,-13.625 19.595001,-25.253998c-8.227997,-0.794998 -11.138977,11.265991 -21.945984,10.449997c-0.187012,-1.242996 -1.290009,-1.468994 -1.567993,-2.613007c-0.312012,-9.054993 6.929993,-9.718002 8.621979,-16.54599c-2.246979,-5.630005 -7.80899,-7.57901 -9.404999,-13.932999c-4.349976,-5.119003 -10.177979,-8.881012 -14.891998,-13.933014zm31.351013,26.125c-0.591003,7.181015 -6.625,8.314011 -9.404999,13.062012c5.765991,-0.656998 14.092987,-5.75 14.890991,-14.804001c-2.583008,-2.645004 -4.533997,-5.992004 -10.188995,-5.225006c-1.128998,5.318008 2.221008,5.660004 4.703003,6.966995zm-228.863998,253.411011c3.144989,1.354004 4.580994,3.520996 7.837997,0.871002c2.205002,-9.347992 -11.227997,-8.380005 -7.837997,-0.871002zm15.675995,6.966003c2.679001,-1.087006 3.654999,-4.06601 3.134995,-8.708008c-3.195999,0.647003 -2.69899,-2.807007 -6.269989,-1.740997c-4.680008,4.958008 -3.603012,8.612 3.134995,10.449005zm148.917984,-3.483002c3.126007,-0.860016 2.361023,2.60199 5.486023,1.742004c0.010986,-1.730011 2.138977,-1.106995 1.567993,-3.483002c-1.678009,-2.813995 -8.182007,-6.028015 -7.054016,1.740997zm-137.161987,5.225006c-0.328995,-3.559021 2.581009,-3.52002 1.568008,-7.837006c-6.612,-6.617004 -14.521011,10.927002 -1.568008,7.837006zm3.919006,0.871002c3.623993,2.707977 7.75,-0.355011 7.837997,-4.354004c-2.554001,-4.473022 -8.337006,-1.781006 -7.837997,4.354004zm124.621002,-6.096008c-1.113007,2.575989 3.635986,8.024994 6.270996,4.354004c-0.584991,-2.947021 -3.437988,-6.649994 -6.270996,-4.354004zm-113.64801,8.708008c3.932999,0.595978 4.908005,-2.094025 5.487,-5.225006c-1.158997,-0.453003 -1.975998,-1.287018 -3.134995,-1.740997c-0.582001,2.546997 -3.302002,2.717987 -2.352005,6.966003zm89.351013,-4.354004c-0.494995,3.908997 3.824005,5.566986 6.269989,3.483978c0,-1.16098 0,-2.322998 0,-3.483978c-1.838989,-2.057007 -3.850006,0.140991 -6.269989,0zm-116.783005,3.483978c0.060989,-3.260986 -3.074005,-2.970978 -5.486008,-3.483978c-1.953995,2.265991 3.046005,6.100006 5.486008,3.483978zm131.675003,-1.741974c0.858978,3.108978 2.687988,5.140991 5.485992,6.095978c6.467987,-2.177979 -1.322998,-10.833984 -5.485992,-6.095978zm23.513,0c1.390991,3.389984 3.112,6.412994 7.053986,6.96698c0.132019,-1.014984 1.240021,-0.945984 2.35202,-0.871002c-1.223022,-3.79599 -5.069,-8.580994 -9.406006,-6.095978zm-65.053009,3.483002c2.440994,3.092987 6.380005,4.52298 9.404999,6.96698c0.730988,-2.09198 3.149994,-2.304993 2.351013,-6.096008c-3.610016,-0.802979 -9.063019,-6.769989 -11.756012,-0.870972zm19.593994,-0.871002c0.516998,4.070984 2.606995,6.391998 6.27002,6.96698c1.883972,-4.554993 -1.744019,-9.30899 -6.27002,-6.96698zm-106.593994,0.871002c0.082001,3.392975 3.404007,3.184998 6.270004,3.483978c-0.033005,-1.199982 0.369003,-1.912994 0.783997,-2.613007c-2.201996,-1.208984 -4.505997,-2.301971 -7.054001,-0.870972zm146.566986,6.095978c2.5,-0.516998 2.424011,1.63501 3.919006,0c1.507019,-1.776978 -1.401978,-3.55899 -1.567993,-6.095978c-1.306,0 -2.612,0 -3.919006,0c-0.773987,3.472992 2.34201,2.622986 1.567993,6.095978zm-136.377991,1.742004c2.395004,-0.630005 2.856003,0.890015 4.703003,0.871002c0.302002,-2.277985 2.514008,-2.43399 1.567001,-6.096008c-3.117996,-2.385986 -7.621002,-0.119995 -6.270004,5.225006zm110.513,-5.225006c-1.152008,2.432007 4.272003,8.036011 7.838013,5.225006c0.070984,-4.43399 -4.221008,-7.681 -7.838013,-5.225006zm-101.890991,6.096008c2.610992,3.621002 7.347,0.375 6.269989,-5.225006c-3.701996,-0.048981 -4.453995,3.178009 -6.269989,5.225006zm10.972992,0.869995c0.570007,-1.467987 4.154007,-4 1.567001,-6.095001c-0.569992,1.468018 -4.153992,4 -1.567001,6.095001zm108.161011,-4.354004c-0.727997,4.653015 3.220978,7.53302 6.270996,5.225006c0.669983,-4.587982 -3.833008,-6.854004 -6.270996,-5.225006zm-38.404999,2.613007c0.996002,3.248016 2.835999,5.557007 7.053986,5.225006c1.290009,-4.373993 -1.505981,-6.985992 -5.485992,-7.838013c-0.075989,1.368011 0.105011,3.02002 -1.567993,2.613007zm-130.10701,2.612c0.328995,3.118011 2.498001,4.19101 5.486008,4.354004c1.039001,-1.457001 2.075989,-2.917999 1.567993,-6.095001c-3.376999,-0.993988 -5.759003,-2.817993 -7.054001,1.740997zm12.540009,-0.871002c2.543991,0.368011 2.488998,3.619995 4.702988,4.355011c0.132004,-1.015015 1.238998,-0.946014 2.350998,-0.871002c-0.05899,-1.516998 0.175003,-2.709015 0.784012,-3.484009c-1.886002,-1.902008 -6.840012,-4.313995 -7.837997,0zm178.701981,0c0.968018,2.697998 2.205017,5.097992 6.27002,4.355011c-0.184998,-3.859009 -2.404022,-5.457001 -4.701996,-6.96701c-0.072021,1.372009 -2,0.682007 -1.568024,2.612zm-39.188995,4.355011c-0.273987,-3.76001 -2.102997,-5.791992 -5.485992,-6.096008c-3.020996,4.049011 3.002991,8.160004 5.485992,6.096008zm55.64801,38.31601c4.285004,-2.070007 10.057983,-6.144012 12.540985,-8.708008c2.442017,-2.52301 1.665009,-2.335022 3.919006,-6.096008c0.345001,-0.576996 1.139008,-1.027985 1.567017,-1.742004c1.329987,-2.21698 0.704987,-2.809998 1.567993,-5.225006c0.217987,-0.609985 2.100983,-1.083984 2.350983,-1.740997c3.085022,-8.096985 1.64502,-16.825989 -2.350983,-20.899994c-7.980011,1.355011 -10.587006,9.213013 -14.108002,14.804016c-1.806,2.866974 -6.347992,8.638 -6.269989,11.320984c0.015991,0.593994 1.868988,0.845001 1.566986,2.612c-0.556,3.261017 -2.742004,7.46701 -3.13501,11.321014c-3.940002,3.169983 -8.770996,5.348999 -10.188995,11.321014c2.496002,0.418945 3.279999,2.740967 6.27002,2.612c2.064972,-3.220032 5.250977,-5.195038 6.269989,-9.57901zm-184.972,-38.31601c1.132004,1.065002 1.188995,3.322998 2.352005,4.354004c5.460999,1.181976 7.932999,-4.787994 6.269989,-8.709015c-3.660995,0.576996 -6.882004,1.644012 -8.621994,4.355011zm137.162003,0c1.083984,1.40799 3.727997,1.082001 3.13501,4.354004c1.306,0 2.612,0 3.918976,0c1.436005,-6.141022 -6.131989,-11.06601 -7.053986,-4.354004zm24.296997,-2.613007c0.039001,3.440002 1.606995,5.182007 4.703003,5.225006c0.044006,-3.407013 -2.860992,-6.63501 -4.703003,-5.225006zm-150.486008,9.57901c4.738998,1.65799 7.807007,-2.625 7.838013,-8.708008c-5.269012,-3.704987 -9.392014,4.833008 -7.838013,8.708008zm-18.026993,-4.354004c-0.783997,-3.201996 -3.733002,-3.196014 -6.270004,-1.742004c-7.623993,4.369995 7.798996,7.980011 6.270004,1.742004zm123.838013,-1.742004c-0.310028,5.859009 3.961975,6.627991 7.053986,8.708984c-0.584015,-2.681 2.151001,-1.673981 1.566986,-4.353973c-3.931,-0.413025 -4.540985,-6.709015 -8.620972,-4.355011zm-97.189011,6.96701c4.645996,3.022003 7.091995,-1.145996 8.621002,-6.096008c-5.089005,-3.065002 -6.285004,3.445984 -8.621002,6.096008zm133.241989,-3.483002c2.641998,0.256989 2.27301,3.860992 4.703003,4.354004c0.173004,-0.679016 0.656006,-1.013 1.567993,-0.871002c0.528015,-4.361023 -2.092987,-5.221008 -3.918976,-6.96701c-0.231018,1.776001 -2.121002,1.708008 -2.35202,3.484009zm-181.052994,2.612c1.600998,0.833984 3.102005,1.778992 4.703003,2.612976c2.272003,-1.777985 1.580994,-5.774994 0,-7.837982c-1.044998,0 -2.089996,0 -3.135002,0c-1.087997,1.113007 -0.480003,4.112 -1.568001,5.225006zm160.675003,2.612976c3.126007,0.478027 2.360992,0.478027 5.487,0c0.601013,-4.151978 -2.673004,-3.996979 -4.703003,-5.224976c-1.641998,2.125977 -1.121002,1.85498 -0.783997,5.224976zm-138.729004,0.870026c1.727005,1.274994 3.365997,2.647003 6.270004,2.612976c1.039993,-1.457977 2.076996,-2.917999 1.567993,-6.095978c-2.5,0.746979 -2.423996,-1.369995 -3.918991,-1.740997c-0.811005,2.291992 -3.108002,2.932983 -3.919006,5.223999zm167.729004,1.742004c0.02301,-0.72702 2.69101,4.819 3.13501,5.224976c1.059998,0.968018 4.382996,1.306 5.487,1.742004c2.592987,-4.084991 3.697998,-9.824005 7.053986,-13.062988c-5.591003,-2.295013 -15.514984,1.216003 -15.675995,6.096008zm-8.622009,0.870972c-0.569,-3.720978 -2.065002,-6.414001 -5.485992,-6.96698c-3.950989,3.470001 2.419006,11.078003 5.485992,6.96698zm-173.998993,0c1.820999,0.590027 2.098007,2.894012 3.919006,3.483002c0.949997,-2.138 3.653,-2.328003 3.918991,-5.224976c-1.774002,-4.742004 -7.666992,-3.987 -7.837997,1.741974zm-13.323997,0.871002c1.332001,1.713013 2.404999,3.714996 4.702995,4.354004c-0.089996,-3.002991 3.223999,-2.221985 3.135002,-5.225006c-1.256996,-1.506989 -2.929001,-2.551971 -4.703003,-3.483002c-0.530998,2.02301 -2.603996,2.331024 -3.134995,4.354004zm38.404991,2.612c2.215012,-0.718994 2.031006,1.22702 3.919006,0.871002c1.897995,-1.372986 3.466003,-3.11499 4.703003,-5.224976c-3.236008,-2.625 -9.173004,-1.870026 -8.622009,4.353973zm127.756012,0c0,-1.450989 0,-2.901978 0,-4.353973c-1.028992,-0.888 -2.889008,-0.853027 -3.919006,-1.742004c-3.260986,2.774994 0.34201,5.962982 3.919006,6.095978zm12.540985,3.484009c0.187012,-1.243011 1.290009,-1.468994 1.567017,-2.613007c-2.313019,-1.203003 -3.173004,-4.020996 -5.485992,-5.224976c-1.122009,3.961975 0.871979,6.311981 3.918976,7.837982zm-130.107986,-0.871002c3.830994,1.540009 5.784988,-0.85498 7.054001,-4.354004c-3.001999,-4.056976 -6.48201,0.585022 -7.054001,4.354004zm-27.432007,0c0.977005,1.817017 3.074997,2.388 3.919006,4.354004c2.798996,-0.95401 4.626999,-2.987 5.485992,-6.096008c-3.541992,-3.511993 -7.796997,-4.523987 -9.404999,1.742004zm-12.539993,-1.742004c-1.892006,4.421997 -0.909004,7.529022 3.917999,6.096008c-0.568008,-2.664001 1.35199,-2.561005 0.783997,-5.225006c-1.914001,-1.824005 -1.669998,-1.244995 -4.701996,-0.871002zm-12.541,4.354004c1.023994,1.225006 4.148994,3.131012 4.702995,0c-2.476997,0.429993 -0.291,-4.320984 -3.135002,-3.483002c0.571007,2.376007 -1.557999,1.753021 -1.567993,3.483002zm171.647995,-0.871002c1.10199,3.130005 2.631012,5.785004 6.269989,6.096008c0.542023,-5.641998 -3.250977,-9.29599 -6.269989,-6.096008zm-134.809998,5.225006c3.201004,1.881989 6.481995,0.03299 7.054001,-3.483002c-2.225006,-4.311005 -7.028,-1.505005 -7.054001,3.483002zm-18.811005,1.742004c2.393997,2.744995 7.5,3.643005 8.622009,-0.871002c-1.708008,-4.167999 -7.899002,-4.32901 -8.622009,0.871002zm28.216003,0c2.634995,2.291992 6.393005,0.011993 7.054001,-2.612c-2.175995,-3.268005 -6.542007,-0.928009 -7.054001,2.612zm-38.404999,5.225006c-0.470001,-2.263 0.313995,-3.134003 2.350998,-2.612c0.104004,-2.147003 0.119003,-4.196014 -0.783997,-5.225006c-0.783005,0 -1.567001,0 -2.351006,0c-2.317993,2.768982 -2.855995,6.458008 0.784004,7.837006zm20.378006,0.871002c3.195999,-0.647003 2.69899,2.806976 6.269989,1.741974c0.452011,-1.820984 1.943008,-2.485992 1.568008,-5.224976c-2.906006,-2.151001 -7.036011,0.528992 -7.837997,3.483002zm-17.243004,3.483002c0.955994,0.098999 1.855995,0.260986 1.568001,1.741974c3.576996,0.781006 4.442001,-1.449982 7.054001,-1.741974c0.214996,-3.723022 -2.276001,-4.439026 -3.919006,-6.096008c-1.757004,1.822998 -3.831001,3.290009 -4.702995,6.096008zm28.999992,-2.612c0.998001,1.185974 3.839005,1.345001 3.919006,-0.871002c-0.998001,-1.186005 -3.839005,-1.346008 -3.919006,0.871002zm-17.242996,4.353973c0,0.871002 0,1.741028 0,2.612c2.983994,0.414001 4.891998,-0.369995 5.486008,-2.612c-1.045013,-1.242981 -4.440002,-1.242981 -5.486008,0zm-1.567993,9.57901c-2.63501,0.077026 -6.276001,-4.190002 -7.838013,0c2.932007,5.741028 5.609009,11.765015 13.325012,12.192017c1.399994,-4.423035 -5.612,-6.351013 -5.487,-12.192017zm185.755981,18.286987c8.457001,1.559021 10.003998,-4.55896 11.757019,-10.450012c-5.722992,-10.807007 -18.748016,2.084045 -11.757019,10.450012z" fill-rule="evenodd" fill="black" clip-rule="evenodd" id="svg_87"/>
  </g>
 </g>
</svg>